# xmcd CD database file
#
# Track frame offsets:
#	187
#	27680
#	56510
#	83922
#	109422
#	133625
#
# Disc length: 2254 seconds
#
# Revision: 2
# Processed by: cddbd v1.5.1PL2 Copyright (c) Steve Scherf et al.
# Submitted via: CDex 1.60beta1-cs1
#
DISCID=5108cc06
DTITLE=Benny Golson - The Other Side Of Benny Golson
DYEAR=1958
DGENRE=Jazz
TTITLE0=Strut Time
TTITLE1=Jubilation
TTITLE2=Symptoms
TTITLE3=Are You For Real?
TTITLE4=Cry A Blue Tear
TTITLE5=This Night
EXTD=w/ Curtis Fuller: trombone\nBarry Harris: piano\nJymie Merritt: bass\nPhilly Joe Jones: drums\n\nA 1990 Prestige/OJC reissue of a 1958 date.\nSubmitted by rwright@waonline.com on 7-17-97. YEAR: 1958
EXTT0=
EXTT1=
EXTT2=
EXTT3=
EXTT4=
EXTT5=
PLAYORDER=
